<?xml version="1.0" encoding="UTF-8" standalone="no"?><!-- Generator: Gravit.io --><svg xmlns="http://www.w3.org/2000/svg" xmlns:xlink="http://www.w3.org/1999/xlink" style="isolation:isolate" viewBox="0 0 437 437" width="437pt" height="437pt"><defs><clipPath id="_clipPath_32zCmdBiAAS0Llk6eOAnYgo2oJjLoxIs"><rect width="437" height="437"/></clipPath></defs><g clip-path="url(#_clipPath_32zCmdBiAAS0Llk6eOAnYgo2oJjLoxIs)"><path d=" M 215.092 0.238 C 210.201 0.881 206.758 1.622 206.758 2.032 C 206.758 2.265 206.48 2.223 206.14 1.941 C 205.717 1.589 205.43 1.573 205.236 1.888 C 205.08 2.14 204.482 2.347 203.907 2.347 C 203.333 2.347 202.741 2.544 202.591 2.786 C 202.442 3.027 201.937 3.224 201.469 3.224 C 201 3.224 200.618 3.471 200.617 3.772 C 200.617 4.086 200.015 4.343 199.211 4.372 C 198.438 4.4 197.732 4.646 197.64 4.921 C 197.549 5.194 197.096 5.417 196.634 5.417 C 196.171 5.417 195.793 5.615 195.793 5.856 C 195.793 6.097 195.581 6.294 195.323 6.294 C 195.065 6.294 194.557 6.591 194.195 6.952 C 193.833 7.314 193.157 7.61 192.691 7.61 C 192.226 7.61 191.845 7.808 191.845 8.049 C 191.845 8.29 191.646 8.488 191.401 8.488 C 190.82 8.488 8.944 190.364 8.944 190.945 C 8.944 191.189 8.747 191.389 8.505 191.389 C 8.264 191.389 8.067 191.753 8.067 192.198 C 8.067 192.643 7.573 193.581 6.97 194.282 C 6.368 194.982 5.875 195.901 5.874 196.323 C 5.874 196.746 5.676 197.091 5.435 197.091 C 5.194 197.091 4.996 197.387 4.996 197.749 C 4.996 198.111 4.799 198.407 4.558 198.407 C 3.926 198.407 4.016 199.609 4.668 199.871 C 4.995 200.003 4.907 200.106 4.448 200.126 C 4.026 200.146 3.681 200.46 3.681 200.825 C 3.681 201.19 3.483 201.881 3.242 202.36 C 3.001 202.839 2.606 203.624 2.365 204.103 C 2.124 204.582 1.926 205.557 1.926 206.27 C 1.926 206.983 1.746 207.677 1.527 207.813 C 1.307 207.949 0.992 209.786 0.826 211.895 C 0.662 214.006 0.359 216.515 0.155 217.472 C -0.05 218.428 -0.052 219.415 0.15 219.665 C 0.35 219.914 0.602 221.763 0.707 223.774 C 0.838 226.284 1.094 227.556 1.522 227.831 C 2.057 228.175 2.053 228.292 1.491 228.652 C 0.97 228.988 0.948 229.184 1.381 229.617 C 1.682 229.918 1.926 230.616 1.926 231.171 C 1.926 231.726 2.124 232.18 2.365 232.18 C 2.606 232.18 2.803 232.76 2.803 233.469 C 2.803 234.179 3.001 234.882 3.242 235.031 C 3.483 235.18 3.681 235.686 3.681 236.154 C 3.681 236.622 3.875 237.005 4.11 237.005 C 4.347 237.005 4.665 237.498 4.817 238.101 C 4.968 238.704 5.267 239.198 5.482 239.198 C 5.698 239.198 5.874 239.741 5.874 240.404 C 5.875 241.067 6.368 242.184 6.97 242.884 C 7.573 243.585 8.067 244.336 8.067 244.552 C 8.067 244.769 10.238 247.114 12.892 249.764 C 15.545 252.413 17.716 254.771 17.716 255.003 C 17.716 255.236 17.913 255.426 18.152 255.426 C 18.724 255.426 24.734 261.431 24.734 262.002 C 24.734 262.246 24.93 262.444 25.169 262.444 C 25.742 262.444 31.752 268.449 31.752 269.02 C 31.752 269.264 31.948 269.462 32.187 269.462 C 32.76 269.462 38.77 275.467 38.77 276.038 C 38.77 276.281 38.976 276.48 39.228 276.48 C 39.823 276.48 41.84 278.496 41.84 279.092 C 41.84 279.344 42.044 279.55 42.293 279.55 C 42.883 279.55 45.787 282.455 45.787 283.045 C 45.787 283.294 45.994 283.498 46.246 283.498 C 46.841 283.498 48.858 285.514 48.858 286.11 C 48.858 286.362 49.056 286.568 49.3 286.568 C 49.871 286.568 55.876 292.578 55.876 293.15 C 55.876 293.389 56.074 293.586 56.317 293.586 C 56.889 293.586 62.893 299.596 62.893 300.168 C 62.893 300.407 63.092 300.604 63.335 300.604 C 63.907 300.604 69.911 306.614 69.911 307.186 C 69.911 307.425 70.102 307.621 70.334 307.621 C 70.568 307.621 72.147 309.01 73.843 310.707 C 75.541 312.403 76.929 313.982 76.929 314.216 C 76.929 314.448 77.125 314.639 77.364 314.639 C 77.937 314.639 83.947 320.644 83.947 321.215 C 83.947 321.458 84.143 321.657 84.382 321.657 C 84.954 321.657 90.965 327.662 90.965 328.233 C 90.965 328.476 91.161 328.675 91.4 328.675 C 91.972 328.675 97.982 334.679 97.982 335.251 C 97.982 335.494 98.189 335.693 98.441 335.693 C 99.036 335.693 101.053 337.709 101.053 338.304 C 101.053 338.557 101.251 338.763 101.495 338.763 C 102.066 338.763 108.07 344.773 108.07 345.345 C 108.07 345.584 108.269 345.781 108.512 345.781 C 109.084 345.781 115.088 351.791 115.088 352.363 C 115.088 352.602 115.287 352.798 115.53 352.798 C 116.101 352.798 122.106 358.809 122.106 359.381 C 122.106 359.62 122.297 359.816 122.529 359.816 C 123.082 359.816 129.124 365.858 129.124 366.411 C 129.124 366.643 129.32 366.834 129.559 366.834 C 130.132 366.834 136.142 372.839 136.142 373.41 C 136.142 373.653 136.338 373.852 136.577 373.852 C 137.149 373.852 143.159 379.856 143.159 380.428 C 143.159 380.671 143.356 380.87 143.595 380.87 C 144.167 380.87 150.177 386.874 150.177 387.446 C 150.177 387.689 150.383 387.887 150.636 387.887 C 151.231 387.887 153.248 389.904 153.248 390.499 C 153.248 390.752 153.452 390.958 153.7 390.958 C 154.29 390.958 157.195 393.862 157.195 394.452 C 157.195 394.701 157.401 394.905 157.653 394.905 C 158.249 394.905 160.265 396.922 160.265 397.517 C 160.265 397.769 160.464 397.976 160.707 397.976 C 161.279 397.976 167.283 403.986 167.283 404.558 C 167.283 404.797 167.482 404.993 167.725 404.993 C 168.296 404.993 174.301 411.003 174.301 411.576 C 174.301 411.815 174.499 412.011 174.743 412.011 C 175.314 412.011 181.319 418.021 181.319 418.594 C 181.319 418.833 181.51 419.029 181.742 419.029 C 182.295 419.029 188.337 425.071 188.337 425.623 C 188.337 425.856 188.554 426.047 188.819 426.047 C 189.083 426.047 189.853 426.639 190.53 427.363 C 191.206 428.086 191.967 428.678 192.22 428.678 C 192.475 428.678 193.147 429.123 193.714 429.665 C 195.218 431.105 196.581 431.809 196.893 431.305 C 197.038 431.07 197.683 431.369 198.334 431.972 C 198.982 432.573 199.761 433.065 200.065 433.065 C 200.369 433.065 200.618 433.262 200.618 433.503 C 200.618 433.744 201.099 433.942 201.688 433.942 C 202.277 433.942 202.886 434.149 203.043 434.401 C 203.237 434.716 203.524 434.699 203.947 434.347 C 204.391 433.979 204.565 433.972 204.565 434.327 C 204.565 434.597 205.059 434.819 205.662 434.819 C 206.265 434.819 206.758 434.982 206.758 435.182 C 206.758 435.623 212.341 436.7 212.885 436.363 C 213.097 436.231 213.774 436.353 214.388 436.633 C 215.242 437.021 215.653 437.018 216.137 436.616 C 216.567 436.26 216.858 436.239 217.053 436.553 C 217.421 437.149 219.781 437.149 220.149 436.553 C 220.343 436.239 220.635 436.26 221.065 436.616 C 221.548 437.018 221.96 437.021 222.814 436.633 C 223.428 436.353 224.104 436.231 224.317 436.363 C 224.861 436.7 230.443 435.623 230.443 435.182 C 230.443 434.982 230.937 434.819 231.54 434.819 C 232.143 434.819 232.636 434.597 232.636 434.327 C 232.636 433.972 232.811 433.979 233.255 434.347 C 233.678 434.699 233.964 434.716 234.158 434.401 C 234.315 434.149 234.925 433.942 235.514 433.942 C 236.103 433.942 236.584 433.744 236.584 433.503 C 236.584 433.262 236.833 433.065 237.137 433.065 C 237.44 433.065 238.22 432.573 238.868 431.972 C 239.518 431.369 240.164 431.07 240.309 431.305 C 240.62 431.809 241.983 431.105 243.488 429.665 C 244.055 429.123 244.727 428.678 244.981 428.678 C 245.234 428.678 245.995 428.086 246.672 427.363 C 247.349 426.639 248.118 426.047 248.383 426.047 C 248.648 426.047 248.865 425.856 248.865 425.623 C 248.865 425.071 254.907 419.029 255.46 419.029 C 255.692 419.029 255.883 418.833 255.883 418.594 C 255.883 418.021 261.888 412.011 262.459 412.011 C 262.702 412.011 262.901 411.815 262.901 411.576 C 262.901 411.003 268.905 404.993 269.477 404.993 C 269.72 404.993 269.919 404.797 269.919 404.558 C 269.919 403.986 275.923 397.976 276.494 397.976 C 276.738 397.976 276.936 397.769 276.936 397.517 C 276.936 396.922 278.953 394.905 279.548 394.905 C 279.8 394.905 280.007 394.701 280.007 394.452 C 280.007 393.862 282.911 390.958 283.501 390.958 C 283.75 390.958 283.954 390.752 283.954 390.499 C 283.954 389.904 285.971 387.887 286.566 387.887 C 286.818 387.887 287.024 387.689 287.024 387.446 C 287.024 386.874 293.035 380.87 293.607 380.87 C 293.846 380.87 294.042 380.671 294.042 380.428 C 294.042 379.856 300.052 373.852 300.625 373.852 C 300.864 373.852 301.06 373.653 301.06 373.41 C 301.06 372.839 307.07 366.834 307.642 366.834 C 307.882 366.834 308.078 366.643 308.078 366.411 C 308.078 365.858 314.12 359.816 314.672 359.816 C 314.905 359.816 315.096 359.62 315.096 359.381 C 315.096 358.809 321.1 352.798 321.672 352.798 C 321.915 352.798 322.113 352.602 322.113 352.363 C 322.113 351.791 328.118 345.781 328.689 345.781 C 328.933 345.781 329.131 345.584 329.131 345.345 C 329.131 344.773 335.136 338.763 335.707 338.763 C 335.951 338.763 336.149 338.557 336.149 338.304 C 336.149 337.709 338.166 335.693 338.761 335.693 C 339.013 335.693 339.219 335.494 339.219 335.251 C 339.219 334.679 345.229 328.675 345.802 328.675 C 346.041 328.675 346.237 328.476 346.237 328.233 C 346.237 327.662 352.247 321.657 352.82 321.657 C 353.059 321.657 353.255 321.458 353.255 321.215 C 353.255 320.644 359.265 314.639 359.837 314.639 C 360.076 314.639 360.273 314.448 360.273 314.216 C 360.273 313.982 361.661 312.403 363.358 310.707 C 365.055 309.01 366.634 307.621 366.867 307.621 C 367.1 307.621 367.291 307.425 367.291 307.186 C 367.291 306.614 373.295 300.604 373.866 300.604 C 374.11 300.604 374.308 300.407 374.308 300.168 C 374.308 299.596 380.313 293.586 380.884 293.586 C 381.128 293.586 381.326 293.389 381.326 293.15 C 381.326 292.578 387.331 286.568 387.902 286.568 C 388.145 286.568 388.344 286.362 388.344 286.11 C 388.344 285.514 390.36 283.498 390.956 283.498 C 391.208 283.498 391.414 283.294 391.414 283.045 C 391.414 282.795 392.098 281.907 392.935 281.071 C 393.771 280.234 394.659 279.55 394.909 279.55 C 395.158 279.55 395.362 279.344 395.362 279.092 C 395.362 278.496 397.378 276.48 397.974 276.48 C 398.226 276.48 398.432 276.281 398.432 276.038 C 398.432 275.467 404.442 269.462 405.014 269.462 C 405.254 269.462 405.45 269.264 405.45 269.02 C 405.45 268.449 411.46 262.444 412.032 262.444 C 412.271 262.444 412.468 262.246 412.468 262.002 C 412.468 261.431 418.478 255.426 419.05 255.426 C 419.289 255.426 419.485 255.236 419.485 255.003 C 419.485 254.771 421.657 252.413 424.31 249.764 C 426.964 247.114 429.135 244.769 429.135 244.552 C 429.135 244.336 429.628 243.585 430.231 242.884 C 430.833 242.184 431.327 241.067 431.328 240.404 C 431.328 239.741 431.503 239.198 431.719 239.198 C 431.934 239.198 432.234 238.704 432.385 238.101 C 432.536 237.498 432.854 237.005 433.091 237.005 C 433.327 237.005 433.521 236.622 433.521 236.154 C 433.521 235.686 433.718 235.18 433.96 235.031 C 434.201 234.882 434.398 234.179 434.398 233.469 C 434.398 232.76 434.596 232.18 434.837 232.18 C 435.078 232.18 435.275 231.726 435.275 231.171 C 435.275 230.616 435.52 229.918 435.82 229.617 C 436.254 229.184 436.232 228.988 435.711 228.652 C 435.148 228.292 435.145 228.175 435.68 227.831 C 436.108 227.556 436.363 226.284 436.495 223.774 C 436.6 221.763 436.851 219.914 437.052 219.665 C 437.254 219.415 437.251 218.428 437.046 217.472 C 436.842 216.515 436.54 214.006 436.375 211.895 C 436.21 209.786 435.895 207.949 435.675 207.813 C 435.455 207.677 435.275 206.983 435.275 206.27 C 435.275 205.557 435.078 204.582 434.837 204.103 C 434.596 203.624 434.201 202.839 433.96 202.36 C 433.718 201.881 433.521 201.19 433.521 200.825 C 433.521 200.46 433.176 200.146 432.753 200.126 C 432.295 200.106 432.206 200.003 432.534 199.871 C 433.185 199.609 433.275 198.407 432.644 198.407 C 432.403 198.407 432.205 198.111 432.205 197.749 C 432.205 197.387 432.008 197.091 431.767 197.091 C 431.525 197.091 431.328 196.746 431.328 196.323 C 431.327 195.901 430.833 194.982 430.231 194.282 C 429.628 193.581 429.135 192.643 429.135 192.198 C 429.135 191.753 428.938 191.389 428.696 191.389 C 428.455 191.389 428.258 191.189 428.258 190.945 C 428.258 190.364 246.381 8.488 245.8 8.488 C 245.556 8.488 245.356 8.29 245.356 8.049 C 245.356 7.808 244.976 7.61 244.511 7.61 C 244.045 7.61 243.368 7.314 243.006 6.952 C 242.644 6.591 242.137 6.294 241.879 6.294 C 241.62 6.294 241.409 6.097 241.409 5.856 C 241.409 5.615 241.03 5.417 240.568 5.417 C 240.106 5.417 239.653 5.194 239.562 4.921 C 239.47 4.646 238.764 4.4 237.991 4.372 C 237.187 4.343 236.585 4.086 236.585 3.772 C 236.584 3.471 236.201 3.224 235.733 3.224 C 235.265 3.224 234.759 3.027 234.61 2.786 C 234.461 2.544 233.869 2.347 233.294 2.347 C 232.72 2.347 232.122 2.14 231.965 1.888 C 231.771 1.573 231.485 1.589 231.062 1.941 C 230.722 2.223 230.443 2.269 230.443 2.042 C 230.443 1.469 223.672 0.239 219.259 0.012 C 218.294 -0.037 216.419 0.065 215.092 0.238 Z  M 226.549 24.91 C 228.087 25.479 230.038 26.286 230.882 26.702 C 234.39 28.431 409.139 204.012 410.722 207.398 C 411.51 209.087 412.306 210.782 412.491 211.165 C 414.423 215.191 413.631 224.021 410.851 229.446 C 409.064 232.935 234.718 408.069 231.296 409.813 C 230.465 410.236 229.13 410.926 228.328 411.344 C 223.264 413.994 213.937 413.994 208.874 411.344 C 208.072 410.926 206.736 410.236 205.905 409.813 C 202.484 408.069 28.138 232.935 26.35 229.446 C 23.571 224.021 22.779 215.191 24.711 211.165 C 24.895 210.782 25.691 209.087 26.48 207.398 C 28.677 202.699 203.102 28.181 207.636 26.147 C 214.382 23.121 220.607 22.714 226.549 24.91 Z  M 150.177 147.747 L 150.177 163.318 L 193.307 163.318 C 217.03 163.318 236.561 163.441 236.711 163.592 C 237.096 163.977 235.463 166.958 232.746 170.833 C 231.962 171.951 231.321 173.086 231.321 173.355 C 231.321 173.624 231.17 173.844 230.986 173.844 C 230.802 173.844 230.457 174.233 230.219 174.709 C 229.35 176.441 214.925 198.63 214.575 198.772 C 214.377 198.853 214.215 199.102 214.215 199.327 C 214.215 199.843 207.993 209.54 207.536 209.737 C 207.349 209.818 207.197 210.061 207.197 210.278 C 207.197 210.811 204.073 215.695 203.615 215.878 C 203.414 215.959 203.249 216.21 203.249 216.436 C 203.249 216.941 200.963 220.501 200.508 220.703 C 200.327 220.784 200.179 221.129 200.179 221.47 C 200.179 221.812 199.982 222.092 199.741 222.092 C 199.499 222.092 199.302 222.291 199.302 222.535 C 199.302 222.778 198.611 223.961 197.767 225.162 C 196.922 226.363 196.232 227.47 196.232 227.621 C 196.232 227.772 195.541 228.837 194.696 229.987 C 193.852 231.137 193.161 232.298 193.161 232.568 C 193.161 232.837 192.964 233.057 192.723 233.057 C 192.481 233.057 192.284 233.24 192.284 233.464 C 192.284 233.688 191.513 235.02 190.571 236.425 C 188.38 239.691 183.128 247.819 179.565 253.453 C 178.04 255.865 176.627 257.905 176.424 257.985 C 176.221 258.066 176.055 258.315 176.055 258.539 C 176.055 259.056 169.834 268.753 169.376 268.95 C 169.19 269.031 169.038 269.28 169.038 269.505 C 169.038 270.007 165.875 274.888 165.419 275.091 C 165.238 275.172 165.09 275.423 165.09 275.649 C 165.09 276.154 162.804 279.714 162.349 279.915 C 162.168 279.996 162.02 280.342 162.02 280.683 C 162.02 281.025 161.822 281.305 161.581 281.305 C 161.34 281.305 161.143 281.528 161.143 281.8 C 161.143 282.073 160.452 283.258 159.607 284.433 C 158.763 285.608 158.072 286.682 158.072 286.819 C 158.072 286.956 157.184 288.314 156.099 289.835 C 155.013 291.355 154.125 292.737 154.125 292.905 C 154.125 293.073 153.237 294.454 152.151 295.975 C 151.065 297.496 150.177 298.878 150.177 299.043 C 150.177 299.21 149.71 299.974 149.139 300.743 C 148.568 301.51 147.755 302.681 147.334 303.345 L 146.567 304.551 L 222.065 304.551 L 297.562 304.551 L 297.447 288.871 L 297.332 273.19 L 251.935 272.971 C 226.967 272.85 206.539 272.617 206.539 272.452 C 206.539 271.892 209.134 267.708 209.482 267.708 C 209.673 267.708 209.829 267.48 209.829 267.201 C 209.829 266.922 210.277 266.084 210.824 265.337 C 211.373 264.59 212.096 263.437 212.434 262.773 C 212.771 262.11 213.211 261.567 213.412 261.567 C 213.612 261.567 213.776 261.356 213.776 261.099 C 213.776 260.842 214.27 259.985 214.873 259.194 C 215.476 258.402 215.969 257.527 215.969 257.249 C 215.969 256.97 216.167 256.742 216.408 256.742 C 216.649 256.742 216.846 256.463 216.846 256.121 C 216.846 255.78 217 255.434 217.186 255.353 C 217.374 255.273 218.591 253.529 219.894 251.479 C 221.195 249.428 222.423 247.685 222.624 247.605 C 222.824 247.524 222.987 247.281 222.987 247.064 C 222.987 246.531 226.111 241.647 226.569 241.464 C 226.77 241.383 226.934 241.132 226.934 240.906 C 226.934 240.401 229.221 236.841 229.676 236.64 C 229.857 236.558 230.005 236.301 230.005 236.066 C 230.005 235.83 230.893 234.368 231.979 232.815 C 233.064 231.261 233.952 229.91 233.952 229.813 C 233.952 229.714 235.31 227.591 236.968 225.095 C 241.961 217.581 246.819 210.096 247.434 208.967 C 247.753 208.383 248.7 206.951 249.536 205.786 C 250.373 204.621 251.058 203.545 251.058 203.396 C 251.058 203.246 251.946 201.878 253.032 200.358 C 254.117 198.837 255.006 197.397 255.006 197.159 C 255.006 196.92 255.159 196.66 255.347 196.579 C 255.533 196.499 258.539 191.992 262.023 186.564 C 265.508 181.136 268.514 176.63 268.7 176.55 C 268.888 176.468 269.041 176.199 269.041 175.95 C 269.041 175.701 269.701 174.582 270.508 173.465 C 271.316 172.347 274.123 168.077 276.746 163.976 C 279.37 159.875 281.67 156.453 281.859 156.373 C 282.046 156.292 282.2 156.043 282.2 155.819 C 282.2 155.316 285.362 150.436 285.818 150.233 C 285.999 150.152 286.147 149.892 286.147 149.653 C 286.147 149.415 287.009 148 288.062 146.51 C 289.115 145.019 290.053 143.602 290.147 143.361 C 290.241 143.12 291.846 140.601 293.714 137.764 C 295.584 134.927 297.113 132.51 297.113 132.391 C 297.113 132.273 264.052 132.176 223.645 132.176 L 150.177 132.176 L 150.177 147.747 Z " fill-rule="evenodd" fill="rgb(255,255,255)"/></g></svg>